<?xml version="1.0" encoding="UTF-8"?><svg id="a" xmlns="http://www.w3.org/2000/svg" viewBox="0 0 200 200"><g><rect x=".5" y=".5" width="199" height="199"/><path d="M199,1V199H1V1H199m1-1H0V200H200V0h0Z"/></g><path d="M24.6,38.87H98.13c16.02,0,28.01,3.81,35.99,11.43,7.97,7.62,11.96,18.46,11.96,32.52s-4.35,25.75-13.04,33.89c-8.69,8.14-21.96,12.21-39.79,12.21h-24.22v53.12H24.6V38.87Zm44.43,61.04h10.84c8.53,0,14.52-1.48,17.97-4.44,3.45-2.96,5.18-6.75,5.18-11.38s-1.5-8.3-4.49-11.43c-3-3.12-8.63-4.69-16.89-4.69h-12.6v31.93Z" style="fill:#fff;"/><circle cx="163" cy="36" r="20" style="fill:#ff4f00;"/></svg>